<svg xmlns="http://www.w3.org/2000/svg" xmlns:xlink="http://www.w3.org/1999/xlink" viewBox="0 0 4096 4096"><defs><style>.cls-1{fill:url(#linear-gradient);}.cls-2{font-size:1148.2px;font-family:Gadugi, Gadugi;}.cls-2,.cls-3,.cls-5{fill:#fff;}.cls-3{font-size:770.25px;font-family:MyanmarText, Myanmar Text;}.cls-4{font-family:Carlito, Carlito;}.cls-5{stroke:#fff;stroke-miterlimit:10;stroke-width:15px;}</style><linearGradient id="linear-gradient" x1="335.98" y1="1302.68" x2="3760.02" y2="1302.68" gradientTransform="translate(0 -103)" gradientUnits="userSpaceOnUse"><stop offset="0" stop-color="#fa00ed"/><stop offset="1" stop-color="#ff931e"/></linearGradient></defs><title>Logo E.T.E.R WHITE</title><g id="rond"><path class="cls-1" d="M3655.24,548.08a104.85,104.85,0,0,0-99.89,136.46l-414,343.69L2681.55,762.75a141.75,141.75,0,0,0-138.63-170.66,140.89,140.89,0,0,0-76.2,22.24L2105,314.88a110.53,110.53,0,1,0-188.14,42.56L1715.34,797.75a143.32,143.32,0,0,0-15.87-.89,140.71,140.71,0,0,0-100.67,42.23L1074.61,576a154.61,154.61,0,1,0-38.88,77.7L1559.92,916.8a142.35,142.35,0,0,0-1.58,21.19,140.6,140.6,0,0,0,14.54,62.44l-313.24,304.42a236.38,236.38,0,0,0-342.22,71.48L632.59,1270.2,514.15,941.26a90.42,90.42,0,1,0-62.87,25.44l1.2,0L572,1298.58l-130.22,212.9a91.52,91.52,0,0,0-15.37-1.3,90.4,90.4,0,1,0,72.24,36L614.8,1356.29l273,101.74a236.55,236.55,0,0,0,68.81,208L748.77,1980.18a96.64,96.64,0,1,0,85.25,96,96.22,96.22,0,0,0-12.77-48l207.8-314a236.7,236.7,0,0,0,222.83-20.91l276.76,276.76a168.41,168.41,0,1,0,312,88.06,169.39,169.39,0,0,0-4.07-36.92l502.6-262.89a256.46,256.46,0,0,0,356.9,50.07l266.73,253.45a104.2,104.2,0,1,0,59.7-63.13L2755.94,1745.3a255.15,255.15,0,0,0,43.41-142.79c0-126.7-91.89-231.93-212.67-252.7V868.42a141.64,141.64,0,0,0,51.8-30.2l480.75,277.56L3497,1737.84a85.17,85.17,0,1,0,72.58-40.6c-2,0-3.89.09-5.81.22l-370.86-610.63,412-342a104.78,104.78,0,1,0,50.3-196.7Zm-1983,1341.48a167.73,167.73,0,0,0-80.55,20.48l-277.47-277.47a236.43,236.43,0,0,0,5.29-264.71l314-305.12a141.25,141.25,0,0,0,143.84-7l539.94,425a257,257,0,0,0-18.4,200.48l-502.57,262.88A167.93,167.93,0,0,0,1672.2,1889.56Zm698.66-477.18-539.34-424.5a141.21,141.21,0,0,0-37-154.26L1995.66,394c1.09,0,2.2,0,3.3,0a110.08,110.08,0,0,0,50.58-12.23l361.8,299.48a141.73,141.73,0,0,0,88.46,187.34v481.09A255.57,255.57,0,0,0,2370.86,1412.38Z"/></g><g id="texte"><text class="cls-2" transform="translate(449.6 3179.8)">E.T.E.R</text><text class="cls-3" transform="translate(451.27 3904.09)">R<tspan class="cls-4" x="460.72" y="0">&amp;</tspan><tspan x="986.13" y="0">T Blois</tspan></text><line class="cls-5" x1="373.54" y1="3281.61" x2="3722.46" y2="3281.61"/></g></svg>