<svg xmlns="http://www.w3.org/2000/svg" xmlns:xlink="http://www.w3.org/1999/xlink" viewBox="0 0 8190 4096"><defs><style>.cls-1{fill:url(#New_Gradient_Swatch_4);}.cls-2{fill:#fff;stroke:#000;stroke-linecap:round;stroke-linejoin:round;stroke-width:0.5px;}.cls-3{fill:url(#New_Gradient_Swatch_4-2);}.cls-4{fill:url(#New_Gradient_Swatch_4-11);}</style><linearGradient id="New_Gradient_Swatch_4" x1="1124.9" y1="1349.5" x2="7065.1" y2="1349.5" gradientUnits="userSpaceOnUse"><stop offset="0" stop-color="#ec1f3d"/><stop offset="0.15" stop-color="#e71f3c"/><stop offset="0.35" stop-color="#d71d38"/><stop offset="0.56" stop-color="#bd1b33"/><stop offset="0.79" stop-color="#99172b"/><stop offset="1" stop-color="#731422"/></linearGradient><linearGradient id="New_Gradient_Swatch_4-2" x1="817.53" y1="2978.29" x2="7370.11" y2="2978.29" xlink:href="#New_Gradient_Swatch_4"/><linearGradient id="New_Gradient_Swatch_4-11" x1="6839.58" y1="2439.39" x2="7956.47" y2="2439.39" gradientTransform="translate(-154.8 2188.28) rotate(-30)" xlink:href="#New_Gradient_Swatch_4"/></defs><title>BANNIERE AirThéLAN V2</title><g id="rond"><path class="cls-1" d="M1287.27,415h-36.08v36.08h36.08Zm216.48,216.48h-36.08V739.72H1594V415h-36.08v72.16h-54.12ZM1359.43,415h-36.08v36.08h36.08Zm-72.16,180.4h36.08V835.86s17,19.16,55.27,19.16,53-19.16,53-19.16V595.4h36.08V487.16h-180.4ZM1431.59,415h-36.08v36.08h36.08Zm72.16,0h-36.08v36.08h36.08ZM1287.27,631.48h-36.08V487.16h-54.12V415H1161V739.72h126.28Zm237.19,687.11,78.24-170.24c14-37.92,27.33-65.34,27.33-105.57V793.84h-99.85c-24.56,54.12-83.24,95.4-151.78,95.4s-127.25-41.28-151.77-95.4H1124.9v248.94c0,40.23,14.26,67.57,28.26,105.51l77.69,170.32c7.06,18.94,31.23,34.47,52.28,34.47h190.54C1494.67,1353.08,1517.46,1337.55,1524.46,1318.59ZM6234.65,910.42c-21.42,0-42.57,1.91-63.37,7.18A240.68,240.68,0,0,0,5993,1193.17c19,107.67,110.31,190.57,219.83,197.28,84.15,5.16,153.08-26.43,206.37-91.82,2.09-2.57,4.05-3.74,7.43-3.74q100.5.15,201,0a8.19,8.19,0,0,1,7.15,3.34c57.49,70.16,131.44,101.44,221.55,90.49,67.7-8.23,122.1-41.53,162.31-96.47,39.12-53.45,53.63-113.74,43.13-179.17-11.17-69.63-47-124.13-105.57-163.26-41.21-27.53-87.08-39.61-136.56-39.46-97.5.29-195,.08-292.5.08S6332.15,910.5,6234.65,910.42Zm721.56,979.41c-41.21-27.53-87.08-39.61-136.56-39.46-97.5.29-195,.08-292.5.08s-195,0-292.5,0c-21.42,0-42.57,1.91-63.37,7.18A240.68,240.68,0,0,0,5993,2133.17c19,107.67,110.31,190.57,219.83,197.28,84.15,5.16,153.08-26.43,206.37-91.82,2.09-2.57,4.05-3.74,7.43-3.74q100.5.15,201,0a8.19,8.19,0,0,1,7.15,3.34c57.49,70.16,131.44,101.44,221.55,90.49,67.7-8.23,122.1-41.53,162.31-96.47,39.12-53.45,53.63-113.74,43.13-179.17C7050.61,1983.46,7014.78,1929,6956.21,1889.83Zm-834.32-190q112.23-.19,224.45,0c50.06.13,89.37,20.89,116.92,62.87,13.17,20.08,19.53,42.51,20.57,66.46.05,1.31.13,2.61.22,4.23h85.45c-.59-8.8-.53-17.61-1.85-26.21q-19.86-129.43-141.27-178.84c-25.43-10.3-52.27-13.93-79.7-13.89q-112.22.19-224.45,0c-64.82,0-118.35-42.52-132.61-105.8-.36-1.6-.63-3.22-.87-4.85a89,89,0,0,0-124.67-126l-442.51-202.49,477.37-548.54a88.8,88.8,0,0,0,20.63,2.68q27.41,63.35,94.75,102.84c33,19.29,69.3,27.59,107.57,27.52q112.23-.2,224.45,0c50.06.13,89.37,20.89,116.92,62.87,13.17,20.08,19.53,42.51,20.57,66.46.05,1.31.13,2.61.22,4.23h85.45c-.59-8.8-.53-17.61-1.85-26.21q-19.86-129.44-141.27-178.84c-25.43-10.3-52.27-13.93-79.7-13.89q-112.22.19-224.45,0c-57.78,0-106.59-33.79-126.61-85.95a89,89,0,1,0-157.83-15.7L5344.25,1140,4791.43,887a148,148,0,0,0-225.61-149.26l-378.08-313a115.52,115.52,0,1,0-196.62,44.48L3780.54,929.43a148.71,148.71,0,0,0-16.58-.93,147,147,0,0,0-105.21,44.14L3110.92,697.71a161.61,161.61,0,1,0-40.65,81.21l547.85,274.93a148.45,148.45,0,0,0-1.66,22.15,147,147,0,0,0,15.2,65.26l-327.27,318a247,247,0,0,0-301.6,9.44l-454.18-401.12a94.52,94.52,0,0,0-170.71-79.45c-188.41,37.12-327,200.34-327,401v408.92c0,169.11-143.57,312.68-312.68,312.68s-312.68-127.39-312.68-276.6V1425.24h-96.24v408.92c0,208.88,180.12,372.84,408.92,372.84s408.92-180.12,408.92-408.92V1389.16c0-141.85,101-265.72,233.41-302a94.54,94.54,0,0,0,121,33l453.65,400.65a247,247,0,0,0,32.46,315.88L2770.38,2165.2a102,102,0,0,0-11.92-.7,100.94,100.94,0,1,0,87.66,50.79L3063.36,1887a247.35,247.35,0,0,0,232.92-21.68l289.14,289.15a176,176,0,1,0,321.79,53.45l525.27-274.75a268,268,0,0,0,373,52.33l278.77,264.88a109,109,0,1,0,62.4-66l-278.56-264.68a266.72,266.72,0,0,0,45.37-149.23c0-132.42-96-242.39-222.26-264.1V1003.29a148.15,148.15,0,0,0,68.21-46.35l1072.32,490.7a89,89,0,0,0,76.2,86.94q21.33,87.83,106.39,137.75C6047.31,1691.62,6083.62,1699.92,6121.89,1699.85ZM4390.34,1852.73,3865.1,2127.47a176.09,176.09,0,0,0-213.82-35.57l-289.84-289.84a247.1,247.1,0,0,0,5.53-277l328-318.73a147.62,147.62,0,0,0,150.34-7.31l564.29,444.15a268.55,268.55,0,0,0-19.23,209.51Zm210.05-346.44a267.08,267.08,0,0,0-134.75,65.5L3902,1128.14a147.64,147.64,0,0,0-38.72-161.22l210.26-459.48q1.72.06,3.45.06a115,115,0,0,0,52.86-12.78l378.12,313a148.13,148.13,0,0,0,92.45,195.79Z"/></g><g id="Pad_Manette_hors_grad" data-name="Pad Manette hors grad"><path class="cls-2" d="M6181.55,1198.89H6165c-18.33,0-36.66,0-55,0-14.08-.06-24.33-10.1-24.48-24.18-.18-15.67-.14-31.33,0-47,.1-14.86,9.92-24.79,24.74-24.88,21.66-.14,43.33,0,65,0h6.11c.09-2,.24-3.71.25-5.45,0-21.67,0-43.33,0-65,0-15.77,9.66-25.51,25.52-25.65q22.5-.2,45,0c15.78.14,25.52,10,25.55,25.7q0,32.25,0,64.5v5.9h5.86c21.33,0,42.66,0,64,0,16.67,0,26.21,9.7,26.24,26.45q0,22,0,44c-.06,15.68-10,25.63-25.59,25.65q-32.25,0-64.5,0h-6v5.67q0,32.25,0,64.49c0,16-9.88,25.88-25.82,25.91q-22.25,0-44.5,0c-16,0-25.73-9.82-25.75-25.92q-.06-32,0-64Z"/><path class="cls-2" d="M6824.43,1295a48,48,0,1,1,48-48A47.87,47.87,0,0,1,6824.43,1295Z"/><path class="cls-2" d="M6727.94,1102.82a48,48,0,0,1,48.32,47.65c.33,26.35-21.62,48.43-48.15,48.42a48,48,0,0,1-.17-96.07Z"/><path class="cls-2" d="M6872.52,1150.93a48,48,0,1,1,96.06,0,48,48,0,0,1-96.06,0Z"/><path class="cls-2" d="M6776.35,1054.45a48,48,0,0,1,96.08.17c0,26.44-22,48.35-48.45,48.13A48.08,48.08,0,0,1,6776.35,1054.45Z"/><path class="cls-2" d="M6181.55,2138.89H6165c-18.33,0-36.66.05-55,0-14.08-.06-24.33-10.1-24.48-24.18-.18-15.67-.14-31.33,0-47,.1-14.86,9.92-24.79,24.74-24.88,21.66-.14,43.33,0,65,0h6.11c.09-2,.24-3.71.25-5.45,0-21.67,0-43.33,0-65,0-15.77,9.66-25.51,25.52-25.65q22.5-.2,45,0c15.78.14,25.52,10,25.55,25.7q0,32.25,0,64.5v5.9h5.86c21.33,0,42.66,0,64,0,16.67,0,26.21,9.7,26.24,26.45q0,22,0,44c-.06,15.68-10,25.63-25.59,25.65q-32.25,0-64.5,0h-6v5.67q0,32.25,0,64.49c0,16-9.88,25.88-25.82,25.91q-22.25,0-44.5,0c-16,0-25.73-9.82-25.75-25.92q-.06-32,0-64Z"/><path class="cls-2" d="M6824.43,2235a48,48,0,1,1,48-48A47.87,47.87,0,0,1,6824.43,2235Z"/><path class="cls-2" d="M6727.94,2042.82a48,48,0,0,1,48.32,47.65c.33,26.35-21.62,48.43-48.15,48.42a48,48,0,0,1-.17-96.07Z"/><path class="cls-2" d="M6872.52,2090.93a48,48,0,1,1,96.06,0,48,48,0,0,1-96.06,0Z"/><path class="cls-2" d="M6776.35,1994.45a48,48,0,0,1,96.08.17c0,26.44-22,48.35-48.45,48.13A48.08,48.08,0,0,1,6776.35,1994.45Z"/></g><g id="texte"><path class="cls-3" d="M1487.11,3459.18,1213.83,2907.9,995,3353.9h317l69.79,105.28H817.53l396.3-798.53,402.22,798.53Z"/><path class="cls-3" d="M1726.06,3459.18V2721h111.2v738.18Z"/><path class="cls-3" d="M2508,3459.18,2303.35,3057H2437q22.45,0,39-10.64a89.52,89.52,0,0,0,27.21-27.21,117,117,0,0,0,15.39-36.68,165.73,165.73,0,0,0,4.73-37.86,132.06,132.06,0,0,0-6.51-39.62,162.81,162.81,0,0,0-17.75-38.44,98,98,0,0,0-27.8-29q-16.57-11.25-37.84-11.25H2101.06v632.9h-111.2V2721h459a161.78,161.78,0,0,1,73.35,17.15,193.44,193.44,0,0,1,60.32,47.31q26,30.2,41.41,71.58t15.39,88.72a229.29,229.29,0,0,1-12.42,75.13,242,242,0,0,1-34.31,65.65,202.43,202.43,0,0,1-51.47,49.1,165.86,165.86,0,0,1-63.88,25.43l151.42,298.11Z"/><path class="cls-3" d="M2762.37,2721H3407.1v105.28H3139.74v632.9H3027.35v-632.9h-265Z"/><path class="cls-3" d="M3556.16,3459.18V2721h111.2v738.18Zm569,0V3162.25h-388V3057h388V2721h113.57v738.18Z"/><path class="cls-3" d="M4952.08,2713.89v105.29H4501.37v533.53h450.71v106.47H4390.16V2713.89Zm-301.65-14.19-89.92-74.53,125.4-127.77,93.46,81.63Zm-73.36,460.19V3053.42H4943.8v106.47Z"/><path class="cls-3" d="M5103.51,2721h111.2v632.9h450.72v105.28H5103.51Z"/><path class="cls-3" d="M6442.66,3459.18,6169.38,2907.9l-218.85,446h317l69.8,105.28H5773.08l396.3-798.53,402.21,798.53Z"/><path class="cls-3" d="M6792.81,2857v602.14h-111.2V2721h156.15l418.78,599.78V2721h113.57v738.18H7219.87Z"/><path class="cls-4" d="M7341.59,345.75l36.6,641.38-533.48-354.5L6925,586.3l364.41,247-29.47-440.36Z"/><path class="cls-4" d="M7414.89,304.42l279-161.08A127.48,127.48,0,0,1,7745,126.56a134.22,134.22,0,0,1,53.06,5.2q26.16,8,49.77,26.71t40.6,48.22a145.46,145.46,0,0,1,18.8,56.37,161.68,161.68,0,0,1-3.38,57.9,146.5,146.5,0,0,1-24.12,51.71,139.46,139.46,0,0,1-43.74,39l-37.82-65.52q26.78-23.31,30.25-47.89t-11.4-50.35q-16.57-28.71-43.6-38.13t-60.16,9.7L7452.71,369.93Zm655.34,234.09L7673.46,767.58l-76.07-131.76a150.38,150.38,0,0,1-19.18-56.16,155.49,155.49,0,0,1,3-57.69,146.77,146.77,0,0,1,24.13-51.71,137.68,137.68,0,0,1,43-38.57l38.25,66.25q-26,22.91-29.52,47.47t11,49.61l38.25,66.25L8032.41,473Z"/></g></svg>